<svg xmlns="http://www.w3.org/2000/svg" xmlns:xlink="http://www.w3.org/1999/xlink" baseProfile="tiny" viewBox="0 0 528.9 101.8" overflow="visible"><path d="M99.2 44.5L57.3 2.7C53.8-.8 48-.8 44.5 2.7L2.7 44.5c-3.5 3.5-3.5 9.3 0 12.8l41.8 41.8c3.5 3.5 9.3 3.5 12.8 0l41.8-41.8c3.6-3.5 3.6-9.3.1-12.8zm-30-.5h-.6v33c0 3.2-2.6 5.8-5.8 5.8H37.5c-3.2 0-5.8-2.6-5.8-5.8V44H13L50.5 7.1 87.9 44H69.2zm5.9-6.8H54.4v36.3c0 2.8-2.3 5-5 5-2.8 0-5-2.3-5-5V37.2H25.6l8-8.6h33.6l7.9 8.6z" fill="#221f1f"/><path d="M149.3 10.8H131v49.8h-12.3V10.8h-18.1V.8h48.7v10zm55.6 49.8h-12.3V35h-24v25.6h-12.3V.8h12.3V25h24V.8h12.3v59.8zm46.7-25.9H228v16h27.7v9.9h-40.1V.8h40v10H228V25h23.6v9.7zm74.8-23.9h-18.3v49.8h-12.3V10.8h-18.1V.8h48.7v10zm55 21.2c0 5.9-1 11-3.1 15.5-2.1 4.4-5.1 7.9-8.9 10.3-3.9 2.4-8.3 3.6-13.3 3.6s-9.4-1.2-13.3-3.6-6.9-5.8-9-10.2-3.2-9.5-3.2-15.2v-3c0-5.9 1.1-11.1 3.2-15.5 2.1-4.5 5.1-7.9 9-10.3C346.5 1.2 351 0 355.9 0c5 0 9.4 1.2 13.3 3.6s6.9 5.8 9 10.3 3.2 9.6 3.2 15.5V32zm-12.5-2.7c0-6.3-1.1-11-3.4-14.3-2.2-3.3-5.4-4.9-9.6-4.9-4.1 0-7.3 1.6-9.6 4.8-2.2 3.2-3.4 7.9-3.4 14.1v3c0 6.1 1.1 10.8 3.4 14.2 2.2 3.4 5.5 5 9.7 5 4.1 0 7.3-1.6 9.5-4.9 2.2-3.2 3.3-8 3.4-14.2v-2.8zm33.7 21.4h26.1v9.9h-38.5V.8h12.3v49.9zm69.2-16h-23.6v16h27.7v9.9h-40.1V.8h40v10h-27.7V25h23.6v9.7zm57.1-23.9h-18.3v49.8h-12.3V10.8h-18.1V.8h48.7v10zm-407 90.6h-2.4V87.7h-16.3v13.7h-2.4V72.9h2.4v12.8h16.3V72.9h2.4v28.5z"/><use xlink:href="#B"/><use xlink:href="#C"/><path d="M198.9 94.4c0-1.6-.6-2.8-1.7-3.8-1.1-.9-3.1-1.8-6.1-2.6s-5.1-1.7-6.5-2.7c-1.9-1.4-2.9-3.2-2.9-5.5 0-2.2.9-4 2.7-5.3 1.8-1.4 4.1-2 6.9-2 1.9 0 3.6.4 5.1 1.1s2.7 1.8 3.5 3.1 1.2 2.8 1.2 4.4h-2.4c0-2-.7-3.5-2-4.7s-3.1-1.8-5.4-1.8c-2.2 0-3.9.5-5.2 1.5s-1.9 2.2-1.9 3.8c0 1.5.6 2.6 1.7 3.6 1.2.9 3 1.7 5.6 2.4s4.5 1.4 5.8 2.2 2.3 1.7 3 2.7 1 2.3 1 3.7c0 2.2-.9 4.1-2.7 5.4-1.8 1.4-4.2 2-7.1 2-2 0-3.9-.4-5.5-1.1-1.7-.7-3-1.7-3.8-3-.9-1.3-1.3-2.8-1.3-4.5h2.4c0 2 .8 3.6 2.3 4.8s3.5 1.7 6 1.7c2.2 0 4-.5 5.4-1.5 1.2-1 1.9-2.3 1.9-3.9zm23.4-6.7h-13.4v11.6h15.4v2h-17.8V72.9h17.7v2h-15.3v10.8h13.4v2zm27.5 1.8h-8.3v11.9h-2.4V72.9h9.3c3 0 5.4.7 7.1 2.2s2.6 3.5 2.6 6.2c0 1.8-.5 3.4-1.6 4.8s-2.5 2.4-4.3 2.9l7.1 12.2v.3h-2.6l-6.9-12zm-8.3-2h7.4c2 0 3.7-.6 4.9-1.7 1.2-1.2 1.8-2.6 1.8-4.5 0-2-.6-3.6-1.9-4.7s-3.1-1.7-5.4-1.7h-6.8v12.6zm38.9.2H267v11.6h15.4v2h-17.8V72.9h17.7v2H267v10.8h13.4v2zm28.3 13.7h-2.4L289.9 77v24.4h-2.4V72.9h2.4l16.4 24.5V72.9h2.4v28.5zm26.1-26.5H325v26.5h-2.4V74.9h-9.8v-2h22v2zm29.7 19.5c0-1.6-.6-2.8-1.7-3.8-1.1-.9-3.1-1.8-6.1-2.6s-5.1-1.7-6.5-2.7c-1.9-1.4-2.9-3.2-2.9-5.5 0-2.2.9-4 2.7-5.3 1.8-1.4 4.1-2 6.9-2 1.9 0 3.6.4 5.1 1.1s2.7 1.8 3.5 3.1 1.2 2.8 1.2 4.4h-2.4c0-2-.7-3.5-2-4.7s-3.1-1.8-5.4-1.8c-2.2 0-3.9.5-5.2 1.5s-1.9 2.2-1.9 3.8c0 1.5.6 2.6 1.7 3.6 1.2.9 3 1.7 5.6 2.4s4.5 1.4 5.8 2.2 2.3 1.7 3 2.7 1 2.3 1 3.7c0 2.2-.9 4.1-2.7 5.4-1.8 1.4-4.2 2-7.1 2-2 0-3.9-.4-5.5-1.1-1.7-.7-3-1.7-3.8-3-.9-1.3-1.3-2.8-1.3-4.5h2.4c0 2 .8 3.6 2.3 4.8s3.5 1.7 6 1.7c2.2 0 4-.5 5.4-1.5 1.3-1 1.9-2.3 1.9-3.9z"/><use xlink:href="#B" x="243"/><path d="M401.8,99.4h14.1v2h-16.5V72.9h2.4V99.4z"/><use xlink:href="#C" x="263.1"/><path d="M465.2 74.9h-9.8v26.5H453V74.9h-9.8v-2h22v2zm7.6 26.5h-2.4V72.9h2.4v28.5z"/><use xlink:href="#B" x="351.3"/><path d="M529 101.4h-2.4L510.1 77v24.4h-2.4V72.9h2.4l16.4 24.5V72.9h2.4v28.5z"/><defs ><path id="B" d="M150.3 88.7c0 2.6-.5 4.9-1.4 6.9s-2.2 3.5-3.9 4.6-3.6 1.6-5.8 1.6c-3.3 0-6-1.2-8.1-3.6s-3.1-5.6-3.1-9.7v-2.9c0-2.6.5-4.9 1.4-6.9s2.2-3.5 3.9-4.6 3.6-1.6 5.8-1.6 4.1.5 5.8 1.6 3 2.6 3.9 4.5 1.4 4.2 1.4 6.7v3.4zm-2.4-3.1c0-3.4-.8-6.1-2.3-8.1-1.6-1.9-3.7-2.9-6.4-2.9s-4.8 1-6.3 2.9c-1.6 2-2.4 4.7-2.4 8.2v3c0 3.4.8 6.1 2.4 8 1.6 2 3.7 3 6.4 3s4.9-1 6.4-2.9c1.5-2 2.3-4.7 2.3-8.2v-3z"/><path id="C" d="M176 72.9v19.5c0 1.9-.4 3.6-1.3 5-.8 1.4-2 2.5-3.5 3.3s-3.3 1.1-5.2 1.1c-3 0-5.4-.8-7.2-2.5-1.8-1.6-2.7-3.9-2.8-6.8V72.9h2.4v19.3c0 2.4.7 4.3 2.1 5.6s3.2 2 5.6 2 4.2-.7 5.6-2 2-3.2 2-5.6V72.9h2.3z"/></defs></svg>